<?xml version="1.0" standalone="no"?>
<!DOCTYPE svg PUBLIC "-//W3C//DTD SVG 20010904//EN"
 "http://www.w3.org/TR/2001/REC-SVG-20010904/DTD/svg10.dtd">
<svg version="1.0" xmlns="http://www.w3.org/2000/svg"
 width="512.000000pt" height="512.000000pt" viewBox="0 0 512.000000 512.000000"
 preserveAspectRatio="xMidYMid meet">
<metadata>
Created by potrace 1.14, written by Peter Selinger 2001-2017
</metadata>
<g transform="translate(0.000000,512.000000) scale(0.100000,-0.100000)"
fill="#000000" stroke="none">
<path d="M2340 5043 c-83 -7 -292 -43 -389 -68 -489 -124 -952 -408 -1270
-779 -510 -595 -713 -1361 -561 -2118 180 -899 841 -1626 1720 -1891 245 -74
440 -102 720 -102 280 0 475 28 720 102 533 161 1002 500 1319 953 512 734
593 1689 210 2490 -347 726 -989 1219 -1797 1380 -175 35 -469 49 -672 33z
m240 -193 c0 -5 -7 -24 -15 -42 -9 -18 -33 -105 -53 -193 l-37 -160 -53 -7
c-64 -10 -123 -38 -151 -74 -12 -15 -35 -71 -52 -125 l-30 -99 43 -55 c42 -54
43 -55 95 -55 l53 0 0 -72 c1 -139 41 -239 135 -333 120 -121 383 -211 625
-216 99 -2 358 46 530 98 150 45 244 106 265 173 8 25 -82 239 -101 240 -6 0
-167 -22 -357 -50 -341 -49 -349 -49 -427 -36 -179 32 -265 104 -258 219 l3
52 220 6 c570 17 810 82 845 229 6 27 9 54 5 60 -15 24 17 6 96 -54 210 -159
358 -321 503 -550 278 -438 430 -1011 376 -1423 -14 -108 -42 -263 -46 -263
-3 0 -34 32 -71 70 -185 197 -537 347 -1119 479 -362 81 -711 82 -1144 1 -85
-16 -155 -28 -157 -26 -1 1 12 53 30 114 l32 112 255 146 c140 80 260 151 267
157 6 7 14 37 18 67 6 53 5 57 -30 98 l-37 43 -235 -1 -236 -1 -31 38 c-56 68
-64 73 -110 73 -38 0 -52 -7 -105 -52 -64 -54 -65 -55 -101 -195 -8 -31 -17
-44 -33 -48 -12 -2 -74 -13 -137 -24 -241 -42 -421 -103 -481 -164 -14 -14
-38 -62 -53 -106 l-28 -80 62 -76 c35 -41 67 -75 72 -75 6 0 120 30 254 67
134 36 247 64 250 60 9 -9 -14 -137 -56 -307 -52 -207 -95 -420 -114 -558 -19
-131 -20 -349 -2 -407 10 -34 18 -42 59 -57 l48 -18 137 72 c75 39 139 73 141
75 3 2 17 136 32 299 15 163 29 298 32 300 2 3 15 0 29 -6 19 -9 45 -5 139 24
189 57 405 97 673 126 94 10 100 9 121 -10 12 -11 33 -20 48 -20 50 0 263 -31
387 -56 331 -68 610 -204 801 -391 l86 -84 -18 -65 c-10 -37 -24 -73 -30 -81
-28 -33 -213 -174 -339 -258 -344 -230 -740 -391 -1164 -474 -326 -64 -593
-86 -961 -78 -248 6 -270 8 -485 47 -199 36 -241 41 -358 39 l-133 -2 -46 44
c-259 250 -509 698 -609 1092 -72 285 -90 507 -59 744 64 489 274 951 601
1325 115 131 323 294 530 414 115 67 139 75 130 47 -21 -74 -19 -84 52 -182
62 -87 71 -96 121 -112 61 -21 40 -32 185 90 90 77 106 99 106 153 0 26 -14
44 -86 111 -98 92 -99 85 28 123 155 46 375 85 548 97 25 2 53 4 63 5 9 1 17
-2 17 -8z m556 -85 c159 -46 454 -163 429 -171 -21 -7 -717 -75 -722 -71 -2 3
27 66 64 142 l68 137 36 -6 c20 -3 76 -17 125 -31z m1009 -3836 c-17 -26 -201
-170 -310 -242 -135 -89 -370 -207 -520 -263 -113 -41 -314 -94 -455 -119
-288 -51 -637 -18 -970 91 -104 34 -194 72 -140 58 69 -18 229 -13 743 21
l562 37 175 55 c290 91 650 235 855 341 69 36 68 35 60 21z"/>
<path d="M1515 4221 c-80 -20 -122 -59 -159 -148 -31 -73 -32 -104 -7 -158 37
-82 134 -137 270 -153 l69 -8 85 62 c50 37 87 71 90 85 27 100 -21 185 -157
280 -60 42 -75 49 -115 48 -25 -1 -59 -4 -76 -8z"/>
<path d="M1464 3678 c-22 -24 -57 -64 -78 -90 -34 -44 -41 -48 -81 -48 -58 0
-93 -14 -106 -44 -16 -34 -4 -70 38 -116 l36 -40 -32 -69 c-17 -37 -31 -75
-31 -83 0 -49 73 -46 175 8 l65 34 51 -35 c32 -22 63 -35 83 -35 55 0 61 11
60 103 l-1 84 60 38 c77 50 87 61 87 94 0 39 -31 63 -87 68 -91 8 -89 7 -103
75 -18 87 -25 98 -63 98 -26 0 -42 -9 -73 -42z"/>
<path d="M1155 2480 c-112 -24 -204 -151 -320 -444 -45 -112 -47 -123 -43
-192 9 -139 62 -182 246 -203 l103 -12 59 48 60 48 -6 100 -6 100 66 147 c76
171 89 232 61 303 -10 26 -31 56 -50 71 -37 28 -119 44 -170 34z"/>
<path d="M4195 1886 c-36 -16 -56 -38 -83 -91 -16 -32 -22 -37 -27 -22 -11 27
-27 20 -69 -29 l-38 -45 29 -42 c17 -23 51 -84 77 -134 25 -51 52 -93 59 -93
8 0 31 15 51 33 l38 32 -48 97 c-43 86 -47 99 -36 123 28 62 62 38 122 -86 19
-38 39 -69 45 -69 7 0 29 15 51 34 l39 35 -64 125 c-44 84 -72 128 -88 135
-13 6 -25 11 -26 11 -1 -1 -15 -7 -32 -14z"/>
<path d="M3863 1654 c-62 -37 -97 -101 -97 -178 1 -104 57 -176 139 -176 54 0
80 10 124 47 38 32 38 59 2 104 l-18 23 -32 -27 c-38 -31 -48 -33 -79 -11 -33
23 -31 86 4 113 15 12 33 21 40 21 21 0 26 17 18 65 -6 40 -9 45 -33 45 -14 0
-45 -12 -68 -26z"/>
<path d="M3460 1420 c-8 -6 -32 -15 -53 -21 -30 -8 -37 -14 -32 -27 8 -19 50
-206 60 -264 7 -44 19 -47 84 -18 28 13 41 25 38 33 -3 8 -18 80 -34 160 -15
81 -32 147 -38 147 -5 0 -17 -5 -25 -10z"/>
<path d="M3274 1344 c-32 -12 -45 -23 -59 -54 -20 -44 -26 -47 -45 -24 -25 29
-48 35 -96 23 l-46 -12 5 -41 c3 -22 14 -46 24 -54 10 -7 29 -21 42 -31 l23
-17 -31 -51 c-37 -60 -44 -133 -12 -133 45 0 79 22 102 66 13 24 27 44 30 44
3 0 16 -11 29 -25 26 -27 50 -31 99 -14 27 9 31 16 31 45 0 34 -11 50 -63 91
l-28 21 31 50 c21 34 30 62 30 91 0 46 -3 47 -66 25z"/>
<path d="M3639 1304 c-72 -77 22 -194 96 -119 32 31 35 103 7 128 -28 25 -74
21 -103 -9z"/>
<path d="M2902 1247 c-39 -7 -52 -14 -47 -24 3 -8 5 -82 5 -165 l0 -151 50 7
c28 4 56 9 63 11 9 4 12 48 12 170 0 141 -2 165 -15 164 -8 -1 -39 -6 -68 -12z"/>
<path d="M1418 1187 c-16 -24 -28 -46 -28 -49 0 -3 28 -11 62 -18 70 -13 71
-11 -43 -70 -66 -34 -77 -43 -92 -81 -9 -23 -16 -43 -14 -44 3 -1 211 -45 249
-52 23 -4 30 1 57 43 l30 49 -47 8 c-104 16 -104 14 -6 67 82 44 92 53 104 89
7 23 11 43 9 44 -2 2 -51 14 -109 26 -58 13 -114 25 -125 27 -15 4 -27 -6 -47
-39z"/>
<path d="M2645 1209 c-38 -5 -78 -6 -87 -3 -13 4 -20 -7 -32 -50 -9 -30 -16
-57 -16 -61 0 -3 28 -3 63 1 l62 6 -69 -70 c-66 -68 -69 -73 -71 -122 -2 -51
-1 -52 24 -46 14 3 77 11 139 17 l112 13 11 40 c5 23 13 50 16 60 4 15 2 18
-13 12 -11 -4 -44 -10 -74 -13 l-55 -5 61 63 c70 73 84 95 84 138 0 30 -1 31
-42 30 -24 -1 -74 -5 -113 -10z"/>
<path d="M2359 1183 l-45 -4 -12 -117 c-7 -64 -15 -139 -19 -166 l-6 -49 59 7
c32 4 59 8 60 9 2 2 10 61 19 132 9 72 19 145 22 163 4 27 2 32 -13 30 -11 -1
-39 -3 -65 -5z"/>
<path d="M1757 1172 c-3 -4 -7 -25 -11 -47 -4 -22 -21 -88 -37 -148 -17 -59
-27 -112 -24 -117 3 -6 30 -10 60 -10 l54 0 11 43 c6 23 26 94 45 157 18 63
33 115 32 116 -9 6 -127 12 -130 6z"/>
<path d="M1936 1158 c-17 -53 -15 -66 16 -107 l31 -42 -47 -48 c-33 -33 -48
-58 -53 -84 l-6 -37 50 0 c43 0 53 4 83 35 19 19 37 35 40 35 4 0 14 -16 23
-35 16 -34 19 -35 71 -35 l54 0 5 38 c4 30 -1 45 -25 81 l-30 44 47 47 c32 33
47 57 52 85 l6 38 -53 -6 c-41 -5 -61 -14 -85 -37 l-32 -31 -23 35 c-20 33
-25 36 -71 36 -31 0 -51 -5 -53 -12z"/>
</g>
</svg>
